<?xml version="1.0" standalone="no"?>
<!DOCTYPE svg PUBLIC "-//W3C//DTD SVG 20010904//EN"
 "http://www.w3.org/TR/2001/REC-SVG-20010904/DTD/svg10.dtd">
<svg version="1.0" xmlns="http://www.w3.org/2000/svg"
 width="490.000000pt" height="490.000000pt" viewBox="0 0 490.000000 490.000000"
 preserveAspectRatio="xMidYMid meet">
<metadata>
Created by potrace 1.16, written by Peter Selinger 2001-2019
</metadata>
<g transform="translate(0.000000,490.000000) scale(0.100000,-0.100000)"
fill="#000000" stroke="none">
<path d="M2315 4189 c-390 -57 -701 -359 -776 -756 -7 -39 -10 -115 -7 -200 6
-154 29 -245 95 -378 234 -467 824 -644 1280 -383 207 118 363 317 434 553 26
88 37 314 20 408 -94 497 -552 828 -1046 756z"/>
<path d="M1735 2390 c-404 -96 -696 -259 -850 -475 -98 -137 -232 -466 -255
-624 -29 -208 -8 -292 83 -335 226 -105 695 -197 1217 -238 201 -15 852 -15
1045 0 532 44 988 134 1212 238 87 41 108 115 87 304 -19 176 -158 520 -269
668 -114 151 -336 293 -605 387 -117 40 -290 85 -332 85 -14 0 -67 -20 -117
-45 -306 -152 -642 -151 -957 5 -67 33 -126 60 -130 59 -5 0 -63 -13 -129 -29z"/>
</g>
</svg>
